<?xml version="1.0" encoding="UTF-8" standalone="no"?>
<!-- Created with Inkscape (http://www.inkscape.org/) -->

<svg
   xmlns:dc="http://purl.org/dc/elements/1.1/"
   xmlns:cc="http://creativecommons.org/ns#"
   xmlns:rdf="http://www.w3.org/1999/02/22-rdf-syntax-ns#"
   xmlns:svg="http://www.w3.org/2000/svg"
   xmlns="http://www.w3.org/2000/svg"
   xmlns:sodipodi="http://sodipodi.sourceforge.net/DTD/sodipodi-0.dtd"
   xmlns:inkscape="http://www.inkscape.org/namespaces/inkscape"
   id="svg3039"
   version="1.1"
   inkscape:version="0.48.5 r10040"
   width="540.22302"
   height="314.5881"
   sodipodi:docname="navigate_logo_no_subheading_black.svg">
  <metadata
     id="metadata3045">
    <rdf:RDF>
      <cc:Work
         rdf:about="">
        <dc:format>image/svg+xml</dc:format>
        <dc:type
           rdf:resource="http://purl.org/dc/dcmitype/StillImage" />
        <dc:title></dc:title>
      </cc:Work>
    </rdf:RDF>
  </metadata>
  <defs
     id="defs3043" />
  <sodipodi:namedview
     pagecolor="#ffffff"
     bordercolor="#666666"
     borderopacity="1"
     objecttolerance="10"
     gridtolerance="10"
     guidetolerance="10"
     inkscape:pageopacity="0"
     inkscape:pageshadow="2"
     inkscape:window-width="1920"
     inkscape:window-height="1036"
     id="namedview3041"
     showgrid="false"
     inkscape:zoom="0.40534149"
     inkscape:cx="22.453837"
     inkscape:cy="190.25838"
     inkscape:window-x="0"
     inkscape:window-y="44"
     inkscape:window-maximized="0"
     inkscape:current-layer="svg3039"
     fit-margin-top="10"
     fit-margin-left="10"
     fit-margin-right="10"
     fit-margin-bottom="10"
     inkscape:snap-page="true" />
  <path
     style="fill:#000000"
     d="m 325.66984,193.22854 -9.9375,2.125 c -5.46524,1.1633 -14.59349,2.79964 -20.28125,3.625 -12.08359,1.75347 -18.68595,4.84307 -23.5625,11 -4.5933,5.79932 -5.59375,8.72654 -5.59375,16.625 0,7.45438 0.62605,9.24987 5.15625,15.03125 1.57042,2.00415 2.84375,4.61994 2.84375,5.8125 0,1.19256 -3.0375,8.2672 -6.75,15.71875 -7.52173,15.09726 -8.14017,18.73311 -4.46875,25.90625 1.65164,3.22694 9.2138,11.40625 10.53125,11.40625 0.15703,0 2.74611,0.8886 5.75,1.96875 7.88564,2.83563 26.30165,2.86265 34.53125,0.0312 7.48482,-2.57515 12.66767,-6.18695 14.90625,-10.34375 2.65819,-4.93595 1.7806,-15.81251 -1.71875,-21.28125 -4.35969,-6.81325 -16.76849,-11.375 -30.9375,-11.375 -4.38075,0 -8.00272,-0.46014 -8.375,-1.0625 -1.02461,-1.65785 2.5995,-5.03771 4.6875,-4.375 2.35991,0.74901 13.0403,-2.00776 18.65625,-4.8125 5.2385,-2.61623 8.67397,-6.46263 11.84375,-13.25 3.08285,-6.60121 3.04792,-12.88797 -0.125,-20.0625 -2.59534,-5.86854 -2.20819,-9.4375 1.03125,-9.4375 1.49432,0 5.4305,-5.51935 5.4375,-7.625 0.002,-0.62656 -0.81524,-2.14344 -1.8125,-3.375 l -1.8125,-2.25 z m -29.84375,22.25 c 10.92224,0 15.70399,14.75338 6.34375,19.59375 -5.50316,2.84579 -14.43285,0.97356 -16.84375,-3.53125 -0.56383,-1.05352 -1.03125,-3.47784 -1.03125,-5.375 0,-4.77389 6.37482,-10.6875 11.53125,-10.6875 z m -0.0312,61 c 16.31405,0 21.77168,5.51763 9.875,9.96875 -2.99463,1.12043 -7.78938,2.04335 -10.65625,2.03125 -5.50651,-0.0232 -13.05237,-2.81166 -13.90625,-5.125 -1.62757,-4.40944 3.63129,-6.875 14.6875,-6.875 z"
     id="path3116"
     inkscape:connector-curvature="0" />
  <path
     style="fill:#000000"
     d="m 367.23234,197.97854 c -4.9639,-0.0414 -9.8578,0.67441 -13.0625,2.15625 -6.44302,2.97913 -12.29899,8.57769 -15.3125,14.625 -3.32936,6.68116 -3.62426,19.79277 -0.59375,26.46875 3.9673,8.73962 13.75965,16.99322 22.78125,19.21875 5.3679,1.32419 13.7528,0.23818 20.1563,-2.59375 5.6891,-2.51596 8.0937,-2.50456 8.0937,0.0312 0,2.06639 3.2334,2.85695 8.5313,2.0625 2.8305,-0.42446 4.902,-1.35128 5.5,-2.46875 0.5544,-1.03588 0.8855,-13.27692 0.8124,-28.96875 l -0.125,-27.15625 -2.3124,-1.53125 c -2.5684,-1.68288 -7.3325,-1.11923 -11.125,1.28125 -2.9561,1.87107 -4.1494,1.76889 -9.8438,-0.75 -3.4761,-1.53763 -8.5361,-2.33355 -13.5,-2.375 z m 2.9062,16.5 c 4.2707,0 5.6749,0.5035 8.625,3.09375 8.6874,7.62756 6.1408,22.98037 -4.2812,25.875 -3.7942,1.05381 -4.0975,1.08564 -7.9688,0.34375 -3.7892,-0.72617 -9.9318,-7.36779 -10.7187,-11.5625 -1.026,-5.46923 0.1192,-8.61924 4.9375,-13.4375 3.9406,-3.94058 4.7342,-4.3125 9.4062,-4.3125 z"
     id="path3110"
     inkscape:connector-curvature="0" />
  <path
     style="fill:#000000"
     d="m 60.394824,258.74321 c -1.94203,-1.59531 -2.17901,-3.03168 -2.68099,-16.25 -0.61973,-16.31894 -1.98563,-21.62348 -6.55881,-25.47156 -2.37127,-1.99529 -4.10152,-2.52844 -8.20565,-2.52844 -6.55946,0 -9.17362,1.78967 -12.24301,8.38165 -2.16535,4.65042 -2.38412,6.44853 -2.393,19.66835 -0.007,9.97158 -0.38737,14.9276 -1.20977,15.75 -1.62803,1.62803 -14.23668,1.58757 -15.58211,-0.05 -0.62801,-0.76438 -1.1612,-11.97045 -1.37244,-28.84479 -0.4031598,-32.20497 -0.5919198,-31.46848 7.84205,-30.59801 2.88641,0.2979 6.51481,1.28995 8.06311,2.20455 2.70304,1.59673 3.00874,1.55994 7.68117,-0.92442 6.22309,-3.30885 14.07931,-3.47168 21.96191,-0.45518 7.16358,2.74135 11.63558,7.1522 15.78165,15.56588 l 3.32466,6.74677 0.31553,17.9931 c 0.28456,16.2274 0.14314,18.11916 -1.44113,19.2776 -2.6104,1.90877 -10.73968,1.62389 -13.28317,-0.4655 z"
     id="path3106"
     inkscape:connector-curvature="0" />
  <path
     style="fill:#000000"
     d="m 117.38859,197.60354 c -3.65203,-0.009 -7.41114,0.77141 -11.78125,2.34375 -5.21847,1.87757 -7.810208,3.52758 -11.124996,7.15625 -6.69419,7.32807 -8.46898,11.58346 -8.96875,21.4375 -0.36858,7.2673 -0.0983,9.33944 1.8125,13.78125 2.53358,5.88946 10.098878,13.36624 16.468746,16.28125 5.10252,2.33503 19.16702,2.50046 25,0.28125 7.13666,-2.7152 7.52979,-2.74666 9.59375,-0.53125 2.68821,2.88545 10.08484,2.97766 12.90625,0.15625 1.89694,-1.89694 1.96833,-3.14724 1.625,-29.5 -0.26096,-20.03092 -0.7189,-27.93946 -1.625,-29.03125 -1.89458,-2.28283 -9.53551,-1.96449 -12,0.5 -2.55683,2.55683 -3.38313,2.51882 -10.8125,-0.5 -3.91857,-1.59225 -7.44172,-2.36623 -11.09375,-2.375 z m 1.90625,16.15625 c 4.42685,-0.0708 8.7421,2.16043 11.8125,6.71875 2.00053,2.96996 2.32831,4.45223 2,9.78125 -0.33232,5.39384 -0.82762,6.73387 -3.4375,9.34375 -6.41967,6.41967 -17.07262,5.34081 -22.5,-2.28125 -3.07476,-4.3181 -3.23333,-12.52161 -0.3125,-16.4375 3.47809,-4.66301 8.01065,-7.05423 12.4375,-7.125 z"
     id="path3104"
     inkscape:connector-curvature="0" />
  <path
     style="fill:#000000"
     d="m 428.41614,258.74321 c -1.9957,-1.65603 -2.1225,-2.79508 -2.3607,-21.2126 l -0.2518,-19.46259 -2.5,-1.18883 c -1.375,-0.65385 -3.85,-1.57974 -5.5,-2.05752 -2.878,-0.83336 -3.0122,-1.12564 -3.3,-7.18589 -0.1654,-3.48262 0.1796,-6.89508 0.7689,-7.60509 0.5878,-0.70835 2.8019,-1.56503 4.9201,-1.90374 5.4515,-0.87174 6.3141,-2.42635 6.5067,-11.7273 0.2066,-9.9783 1.3567,-11.28057 9.405,-10.64927 7.6456,0.59972 8.5986,1.9489 9.1993,13.02402 l 0.5,9.21881 5.4696,0.30988 c 3.0084,0.17043 6.0459,0.78803 6.75,1.37244 0.7947,0.65948 1.2804,3.47318 1.2804,7.41707 0,5.59234 -0.286,6.54187 -2.3842,7.91668 -1.3113,0.8592 -4.0095,1.45272 -5.9959,1.31895 -1.9865,-0.13378 -4.1241,0.26915 -4.7504,0.8954 -0.7565,0.75649 -1.2228,7.7657 -1.3896,20.8838 -0.2879,22.65563 -0.1787,22.38578 -9.0603,22.38578 -3.4805,0 -5.895,-0.57826 -7.3071,-1.75 z"
     id="path3100"
     inkscape:connector-curvature="0" />
  <path
     style="fill:#000000"
     d="m 495.48234,197.04104 c -4.9953,0.11463 -7.0434,0.69617 -10.9688,2.75 -14.2772,7.47027 -20.3839,20.88473 -16.8124,36.9375 2.472,11.11183 8.9387,18.98742 18.3437,22.34375 5.1112,1.82401 16.9465,1.75252 22.3437,-0.125 5.4812,-1.90671 12.2896,-6.52712 12.6876,-8.59375 0.4638,-2.40835 -7.6057,-7.2905 -11.7813,-7.125 -1.925,0.0763 -5.9839,0.25604 -9.0313,0.40625 -5.8694,0.28932 -11.1154,-1.82177 -13.3437,-5.40625 -2.1344,-3.43355 0.8133,-3.90258 21.5313,-3.34375 16.5469,0.44632 19.8782,0.30121 20.9062,-0.9375 0.8204,-0.98869 1.0521,-3.74758 0.7188,-8.40625 -0.3952,-5.52142 -1.1384,-7.92757 -3.5938,-11.75 -7.5932,-11.82039 -16.0667,-16.757 -28.6875,-16.75 -0.849,4.6e-4 -1.5989,-0.0164 -2.3125,0 z m 3.75,16.4375 c 6.1855,0 14.4826,5.91244 12.5938,8.96875 -0.8028,1.299 -24.1713,1.4154 -24.9688,0.125 -1.7984,-2.90991 6.6132,-9.09375 12.375,-9.09375 z"
     id="path3098"
     inkscape:connector-curvature="0" />
  <path
     style="fill:#000000"
     d="m 191.08096,257.74321 c -2.37925,-2.71674 -27.77737,-54.2625 -27.77737,-56.37448 0,-1.03154 0.3375,-1.91437 0.75,-1.96184 14.42057,-1.65978 14.958,-1.31406 23.04911,14.82732 3.7167,7.41465 7.15818,13.46604 7.64772,13.44752 0.48954,-0.0185 3.52654,-5.80601 6.74889,-12.86109 3.22235,-7.05509 6.81973,-13.63382 7.99418,-14.61941 1.67617,-1.40664 3.55191,-1.7292 8.72273,-1.5 5.78858,0.25657 6.62329,0.54321 6.88357,2.3638 0.31587,2.2094 -24.35889,53.18249 -27.33755,56.47387 -2.19203,2.42217 -4.6725,2.49802 -6.68128,0.20431 z"
     id="path3094"
     inkscape:connector-curvature="0" />
  <path
     style="fill:#000000"
     d="m 236.57203,258.24321 c -0.59222,-0.75813 -0.91025,-12.39617 -0.80821,-29.57618 0.18358,-30.9067 0.15381,-30.75723 5.91477,-29.70095 1.58125,0.28992 4.36161,0.52713 6.17857,0.52713 6.41405,0 6.44389,0.14355 6.30147,30.31312 -0.0762,16.14423 -0.52875,27.6946 -1.11414,28.43688 -0.62661,0.79455 -3.62923,1.25 -8.2409,1.25 -4.61665,0 -7.61022,-0.45459 -8.23156,-1.25 z"
     id="path3092"
     inkscape:connector-curvature="0" />
  <path
     style="fill:#000000"
     d="m 235.39854,175.74321 c -3.88781,-2.0625 -7.09408,-4.2 -7.12504,-4.75 -0.0309,-0.55 2.70158,-1.45 6.07231,-2 4.94569,-0.80699 6.39479,-1.48253 7.50775,-3.5 1.93413,-3.506 1.79389,-4.86997 -1.04997,-10.21215 -1.375,-2.58293 -2.5,-6.05481 -2.5,-7.71529 0,-4.20925 3.98375,-12.07256 6.11626,-12.07256 1.8959,0 14.25035,15.20385 15.91741,19.58856 0.57212,1.50478 0.74281,4.71919 0.37931,7.14314 l -0.66089,4.40717 9.87395,-0.64707 c 5.43068,-0.35589 10.46161,-0.83266 11.17986,-1.0595 1.40025,-0.44223 8.78307,2.31206 8.08055,3.01459 -0.23135,0.23134 -5.81294,1.33254 -12.40354,2.4471 -7.48102,1.26515 -15.26479,3.35634 -20.71844,5.56624 -4.80454,1.94688 -9.83021,3.53977 -11.16815,3.53977 -1.33795,0 -5.61357,-1.6875 -9.50137,-3.75 z"
     id="path3090"
     inkscape:connector-curvature="0" />
  <path
     style="fill:#000000"
     d="m 308.44742,158.16651 c -2.098,-2.52793 -4.12094,-8.56987 -3.47117,-10.3674 0.35903,-0.99325 1.47954,-3.00033 2.49001,-4.46019 l 1.83721,-2.65429 -7.24994,-3.71067 c -8.93863,-4.57498 -9.67035,-5.22637 -6.64458,-5.91514 10.62355,-2.41829 57.70759,-5.04356 59.46509,-3.31561 1.3778,1.35457 -0.3897,1.99855 -9.28691,3.38367 -4.83095,0.75209 -10.92104,1.86206 -13.53354,2.46662 l -4.75,1.09919 0,4.36546 c 0,4.59876 -1.1959,6.46066 -10.39569,16.18506 -4.15173,4.38848 -6.55526,5.21895 -8.46048,2.9233 z"
     id="path3088"
     inkscape:connector-curvature="0" />
  <path
     style="fill:#000000"
     d="m 364.55364,115.71528 c -3.9875,-2.01247 -7.25,-3.97835 -7.25,-4.3686 0,-0.39026 2.5875,-0.99316 5.75,-1.33978 7.9379,-0.87002 10.25,-1.96849 10.25,-4.86981 0,-1.31944 -0.6996,-2.97958 -1.5546,-3.68919 -3.2926,-2.732565 -3.6679,-4.858751 -1.4819,-8.395681 2.2159,-3.585479 4.4919,-4.97894 6.3767,-3.904187 0.6379,0.36372 4.1973,3.116237 7.9098,6.116703 5.7524,4.64913 6.75,5.921345 6.75,8.608095 l 0,3.15271 11.51,-0.7376 c 10.9097,-0.69914 16.49,-0.0245 16.49,1.99363 0,0.46083 -4.9124,1.57587 -10.9163,2.47787 -6.7761,1.01799 -14.3996,2.98524 -20.1004,5.18688 -5.0512,1.95079 -10.8264,3.52014 -12.8337,3.48745 -2.114,-0.0344 -6.7002,-1.59903 -10.8996,-3.71849 z"
     id="path3086"
     inkscape:connector-curvature="0" />
  <path
     style="fill:#000000"
     d="m 425.20874,87.83377 c -3.3856,-0.907417 -16.0899,-8.108327 -15.2361,-8.636002 0.4953,-0.306098 3.6495,-0.867559 7.0094,-1.247691 6.1968,-0.70109 6.9913,-1.305466 8.6514,-6.581635 0.2812,-0.893623 -0.578,-3.975806 -1.9093,-6.849297 -2.8384,-6.126329 -3.0176,-9.493323 -0.8003,-15.034872 2.5564,-6.389021 4.597,-6.79926 8.6583,-1.740614 11.3525,14.140686 12.153,15.601921 11.9793,21.869091 -0.1871,6.748049 -1.3932,6.274694 12.5506,4.925761 9.1293,-0.883176 15.1916,-0.06411 15.1916,2.052524 0,0.496196 -0.2838,0.902175 -0.6307,0.902175 -5.3541,0 -23.0654,4.041952 -31.1288,7.10401 -10.1153,3.841269 -11.1812,4.081921 -14.3354,3.23655 z"
     id="path3084"
     inkscape:connector-curvature="0" />
  <path
     style="fill:#000000"
     d="m 345.69312,75.727897 c -1.82474,-1.207253 -4.38953,-6.943289 -4.38953,-9.816993 0,-1.474894 0.88541,-4.114253 1.96758,-5.865242 l 1.96759,-3.183617 -7.96744,-3.884567 c -4.38209,-2.136512 -7.60792,-4.244082 -7.16851,-4.683489 2.05898,-2.058982 54.67993,-6.329496 58.78063,-4.77041 4.0268,1.53099 2.0767,2.646858 -6.8166,3.900484 -4.5448,0.64065 -10.6257,1.830863 -13.5132,2.644918 l -5.25,1.480099 0,4.45332 c 0,4.11336 -0.5153,5.008208 -6.75,11.722065 -6.7391,7.256916 -8.307,8.738119 -9.25005,8.738119 -0.275,0 -0.99971,-0.330609 -1.61047,-0.734687 z"
     id="path3082"
     inkscape:connector-curvature="0" />
  <path
     style="fill:#000000"
     d="m 267.70429,36.874934 c -9.22637,-4.837706 -9.41325,-5.126662 -3.77134,-5.831355 6.78826,-0.847877 9.49657,-1.784389 10.69824,-3.699378 1.00817,-1.606633 0.66975,-2.358931 -3.81305,-8.476309 -0.68322,-0.932331 -0.40836,-2.416393 0.89616,-4.838735 3.03222,-5.6305006 4.80142,-5.4693526 12.90642,1.175588 5.88042,4.821102 7.24056,6.480824 7.50104,9.153184 l 0.31817,3.26426 13.33972,-0.31449 c 12.12496,-0.285851 15.87013,0.172658 14.29294,1.749842 -0.31038,0.310383 -5.22288,1.255369 -10.91666,2.099969 -6.50133,0.964389 -14.16879,2.986428 -20.61176,5.435669 -5.64268,2.145017 -11.08737,3.900031 -12.0993,3.900031 -1.01193,0 -4.94519,-1.628224 -8.74058,-3.618276 z"
     id="path3067"
     inkscape:connector-curvature="0" />
</svg>
