<?xml version="1.0" encoding="UTF-8" standalone="no"?>
<!-- Created with Inkscape (http://www.inkscape.org/) -->

<svg
   xmlns:dc="http://purl.org/dc/elements/1.1/"
   xmlns:cc="http://creativecommons.org/ns#"
   xmlns:rdf="http://www.w3.org/1999/02/22-rdf-syntax-ns#"
   xmlns:svg="http://www.w3.org/2000/svg"
   xmlns="http://www.w3.org/2000/svg"
   xmlns:sodipodi="http://sodipodi.sourceforge.net/DTD/sodipodi-0.dtd"
   xmlns:inkscape="http://www.inkscape.org/namespaces/inkscape"
   id="svg3039"
   version="1.1"
   inkscape:version="0.48.5 r10040"
   width="546"
   height="355"
   sodipodi:docname="navigate_logo.png">
  <metadata
     id="metadata3045">
    <rdf:RDF>
      <cc:Work
         rdf:about="">
        <dc:format>image/svg+xml</dc:format>
        <dc:type
           rdf:resource="http://purl.org/dc/dcmitype/StillImage" />
        <dc:title></dc:title>
      </cc:Work>
    </rdf:RDF>
  </metadata>
  <defs
     id="defs3043" />
  <sodipodi:namedview
     pagecolor="#ffffff"
     bordercolor="#666666"
     borderopacity="1"
     objecttolerance="10"
     gridtolerance="10"
     guidetolerance="10"
     inkscape:pageopacity="0"
     inkscape:pageshadow="2"
     inkscape:window-width="1920"
     inkscape:window-height="1036"
     id="namedview3041"
     showgrid="false"
     inkscape:zoom="1.1464789"
     inkscape:cx="69.263955"
     inkscape:cy="215.29728"
     inkscape:window-x="0"
     inkscape:window-y="44"
     inkscape:window-maximized="0"
     inkscape:current-layer="svg3039"
     fit-margin-top="0"
     fit-margin-left="0"
     fit-margin-right="0"
     fit-margin-bottom="0" />
  <path
     style="fill:#000000"
     d="m 12.000022,332 0,-10 6,0 c 3.33334,0 6,0.44444 6,1 0,0.55 -2.25,1 -5,1 l -5,0 0,3.43963 c 0,3.25285 0.20365,3.45649 3.75,3.75 2.0625,0.17071 3.75,0.76037 3.75,1.31037 0,0.55 -1.6875,1.13966 -3.75,1.31037 -3.64623,0.30177 -3.75,0.41937 -3.75,4.25 0,2.16679 -0.45,3.93963 -1,3.93963 -0.6,0 -1,-4 -1,-10 z"
     id="path3186"
     inkscape:connector-curvature="0" />
  <path
     style="fill:#000000"
     d="m 34.085022,322.48533 c -1.21436,0 -8.09375,15.48619 -8.09375,18.21875 0,2.23147 2.00047,1.41022 3,-1.21875 0.79772,-2.09815 1.6042,-2.5 5,-2.5 3.34552,0 4.24567,0.43292 5.1875,2.5 1.13291,2.48646 1.97941,3.02059 3.0625,1.9375 0.95213,-0.95213 -6.79432,-18.9375 -8.15625,-18.9375 z m 0.15625,5.3125 c 0.50286,-0.11068 0.92663,0.81927 1.5,2.6875 1.06447,3.46835 1.02638,3.5 -1.8125,3.5 -2.76383,0 -2.83818,-0.11546 -1.71875,-2.75 0.93488,-2.20018 1.52839,-3.32682 2.03125,-3.4375 z"
     id="path3184"
     inkscape:connector-curvature="0" />
  <path
     style="fill:#000000"
     d="m 48.588922,338.92327 c -6.7301,-7.99826 0.63862,-20.44866 9.99671,-16.89072 3.06567,1.16556 4.59887,2.85994 3.78276,4.18043 -0.27481,0.44466 -1.47025,0.12864 -2.65652,-0.70226 -5.00451,-3.50529 -10.71185,-0.27914 -10.71185,6.05502 0,7.02459 4.2398,9.91298 10.10156,6.88174 3.85876,-1.99544 5.19487,-0.92099 2.03766,1.6386 -1.40042,1.13534 -3.90675,1.91392 -6.16111,1.91392 -3.01601,0 -4.33462,-0.63498 -6.38921,-3.07673 z"
     id="path3180"
     inkscape:connector-curvature="0" />
  <path
     style="fill:#000000"
     d="m 69.000022,332 c 0,-6 0.4,-10 1,-10 0.6,0 1,4 1,10 0,6 -0.4,10 -1,10 -0.6,0 -1,-4 -1,-10 z"
     id="path3178"
     inkscape:connector-curvature="0" />
  <path
     style="fill:#000000"
     d="m 79.000022,332 c 0,-6 0.4,-10 1,-10 0.5926,0 1,3.66667 1,9 l 0,9 4.5,0 c 2.475,0 4.5,0.45 4.5,1 0,0.55 -2.475,1 -5.5,1 l -5.5,0 0,-10 z"
     id="path3176"
     inkscape:connector-curvature="0" />
  <path
     style="fill:#000000"
     d="m 96.000022,332 c 0,-6 0.4,-10 1,-10 0.6,0 1,4 1,10 0,6 -0.4,10 -1,10 -0.6,0 -1,-4 -1,-10 z"
     id="path3174"
     inkscape:connector-curvature="0" />
  <path
     style="fill:#000000"
     d="m 110.00002,333 0,-9 -3,0 c -1.65,0 -3,-0.45 -3,-1 0,-0.57143 3,-1 7,-1 4,0 7,0.42857 7,1 0,0.55 -1.35,1 -3,1 l -3,0 0,9 c 0,5.33333 -0.40741,9 -1,9 -0.59259,0 -1,-3.66667 -1,-9 z"
     id="path3172"
     inkscape:connector-curvature="0" />
  <path
     style="fill:#000000"
     d="m 128.08502,322.48533 c -1.21436,0 -8.09375,15.48619 -8.09375,18.21875 0,2.23147 2.00047,1.41022 3,-1.21875 0.79771,-2.09815 1.6042,-2.5 5,-2.5 3.34551,0 4.24568,0.43292 5.1875,2.5 1.13291,2.48646 1.97941,3.02059 3.0625,1.9375 0.95213,-0.95213 -6.79432,-18.9375 -8.15625,-18.9375 z m -0.0312,5.1875 c 0.56144,-0.0718 1.08189,0.90174 1.6875,2.875 1.04025,3.38945 1.01294,3.4375 -1.78125,3.4375 -2.73766,0 -2.81616,-0.12091 -1.8125,-3 0.74827,-2.14651 1.34481,-3.24066 1.90625,-3.3125 z"
     id="path3170"
     inkscape:connector-curvature="0" />
  <path
     style="fill:#000000"
     d="m 144.00002,333 0,-9 -3,0 c -1.65,0 -3,-0.45 -3,-1 0,-0.57143 3,-1 7,-1 4,0 7,0.42857 7,1 0,0.55 -1.35,1 -3,1 l -3,0 0,9 c 0,5.33333 -0.40741,9 -1,9 -0.59259,0 -1,-3.66667 -1,-9 z"
     id="path3166"
     inkscape:connector-curvature="0" />
  <path
     style="fill:#000000"
     d="m 158.00002,332 c 0,-6 0.4,-10 1,-10 0.6,0 1,4 1,10 0,6 -0.4,10 -1,10 -0.6,0 -1,-4 -1,-10 z"
     id="path3164"
     inkscape:connector-curvature="0" />
  <path
     style="fill:#000000"
     d="m 176.30377,321.98533 c -6.34649,0 -9.3125,3.1755 -9.3125,10 0,4.07183 0.50554,5.5993 2.46875,7.5625 2.88566,2.88567 8.84146,3.34682 12.28125,0.9375 2.83306,-1.98435 4.38146,-7.60211 3.21875,-11.65625 -1.44847,-5.05053 -3.71655,-6.84375 -8.65625,-6.84375 z m -0.8125,2.0625 c 1.89084,-0.16949 3.92136,0.64085 5.53125,2.6875 2.65608,3.37666 2.13687,8.85962 -1.09375,11.5 -4.74996,3.88214 -10.375,0.49379 -10.375,-6.25 0,-4.63903 2.7861,-7.65501 5.9375,-7.9375 z"
     id="path3162"
     inkscape:connector-curvature="0" />
  <path
     style="fill:#000000"
     d="m 191.00002,332 c 0,-5.94644 0.40213,-10 0.99203,-10 0.54562,0 3.13312,3.22431 5.75,7.16514 l 4.75797,7.16514 0.29381,-7.16514 c 0.44723,-10.90651 2.20619,-8.64631 2.20619,2.83486 0,5.5 -0.38398,10 -0.85328,10 -0.46931,0 -3.05681,-3.2625 -5.75,-7.25 l -4.89672,-7.25 -0.29381,7.25 c -0.44473,10.97405 -2.20619,8.7784 -2.20619,-2.75 z"
     id="path3158"
     inkscape:connector-curvature="0" />
  <path
     style="fill:#000000"
     d="m 223.00002,332 0,-10 6.05902,0 c 3.7847,0 5.82703,0.37536 5.44098,1 -0.33992,0.55 -2.61648,1 -5.05902,1 -4.39389,0 -4.44098,0.0365 -4.44098,3.43963 0,3.25285 0.20364,3.45649 3.75,3.75 2.0625,0.17071 3.75,0.76037 3.75,1.31037 0,0.55 -1.6875,1.13966 -3.75,1.31037 -3.64624,0.30177 -3.75,0.41937 -3.75,4.25 0,2.16679 -0.45,3.93963 -1,3.93963 -0.6,0 -1,-4 -1,-10 z"
     id="path3156"
     inkscape:connector-curvature="0" />
  <path
     style="fill:#000000"
     d="m 248.49127,321.98533 c -4.71282,0 -6.35837,0.85877 -8.03125,4.09375 -2.27531,4.39998 -1.84499,9.31412 1.125,12.84375 2.13984,2.54305 3.31067,3.05755 6.75,3.03125 2.28861,-0.0175 4.87734,-0.58 5.75,-1.25 3.97284,-3.05026 5.05367,-9.56587 2.4375,-14.625 -1.67288,-3.23498 -3.31843,-4.09375 -8.03125,-4.09375 z m -0.0312,2 c 1.53703,-0.0118 3.13544,0.60419 4.53125,2 2.29922,2.29922 2.72379,8.69732 0.75,11.28125 -1.39985,1.83256 -5.46693,2.9101 -7.75,2.0625 -2.60782,-0.96816 -4,-3.59805 -4,-7.53125 0,-4.69239 3.08729,-7.78647 6.46875,-7.8125 z"
     id="path3154"
     inkscape:connector-curvature="0" />
  <path
     style="fill:#000000"
     d="m 263.99127,321.98533 0,10 c 0,8.22222 0.26667,10 1.5,10 1.08333,0 1.5,-1.11111 1.5,-4 0,-2.71163 0.45033,-4 1.375,-4 0.7502,0 2.6004,1.8 4.125,4 1.5246,2.2 3.08522,4 3.46875,4 1.91923,0 1.70541,-1.55995 -0.65625,-4.65625 l -2.625,-3.4375 2.15625,-1.5 c 2.57329,-1.8024 2.89569,-6.51056 0.59375,-8.8125 -1.00345,-1.00345 -3.35281,-1.59375 -6.5,-1.59375 l -4.9375,0 z m 5.96875,2 c 3.46275,0 5.34575,2.56027 3.90625,5.25 -0.58232,1.08808 -2.08965,1.75 -3.90625,1.75 -2.7217,0 -2.96875,-0.28701 -2.96875,-3.5 0,-3.20912 0.26363,-3.5 2.96875,-3.5 z"
     id="path3150"
     inkscape:connector-curvature="0" />
  <path
     style="fill:#000000"
     d="m 293.49447,339.99387 c -2.42597,-2.68067 -1.45891,-3.37743 2.10677,-1.51792 3.67103,1.91446 4.87386,1.90611 6.82735,-0.0474 2.50434,-2.50434 1.91828,-3.38523 -3.99082,-5.99852 -5.25009,-2.32184 -5.54472,-2.64105 -5.25,-5.68801 0.44307,-4.58062 4.32222,-6.39145 9.26639,-4.32565 3.36949,1.40786 4.25158,2.54456 2.96952,3.82662 -0.31699,0.31699 -1.88337,-0.17051 -3.48085,-1.08333 -2.17948,-1.24539 -3.33126,-1.39223 -4.61414,-0.58824 -3.20933,2.01132 -2.48245,3.38577 3.09504,5.8524 4.97137,2.19858 5.57629,2.78977 5.57629,5.4497 0,1.64098 -0.70714,3.69075 -1.57143,4.55503 -2.28403,2.28403 -8.70471,2.02877 -10.93412,-0.4347 z"
     id="path3146"
     inkscape:connector-curvature="0" />
  <path
     style="fill:#000000"
     d="m 320.71002,321.98533 c -4.9397,0 -7.20778,1.79322 -8.65625,6.84375 -1.16271,4.05414 0.38569,9.6719 3.21875,11.65625 3.43979,2.40932 9.39559,1.94817 12.28125,-0.9375 1.96321,-1.9632 2.4375,-3.49067 2.4375,-7.5625 0,-6.8245 -2.93476,-10 -9.28125,-10 z m -0.0312,2.125 c 1.41538,-0.10965 2.84739,0.49365 4.4375,1.78125 1.78126,1.44238 2.34375,2.88366 2.34375,6.09375 0,3.21009 -0.56249,4.68262 -2.34375,6.125 -1.28593,1.04128 -3.14686,1.875 -4.125,1.875 -2.97558,0 -6.00358,-3.27406 -6.625,-7.15625 -0.49032,-3.06311 -0.17533,-4.10592 1.96875,-6.25 1.52924,-1.52925 2.92837,-2.3591 4.34375,-2.46875 z"
     id="path3144"
     inkscape:connector-curvature="0" />
  <path
     style="fill:#000000"
     d="m 338.02546,340.02544 c -3.88676,-3.88676 -3.91446,-12.58087 -0.0524,-16.44293 2.65481,-2.65482 9.07971,-2.74973 11.92349,-0.17614 2.71932,2.46094 1.58383,4.1384 -1.45396,2.14797 -3.21083,-2.10383 -6.04256,-1.95435 -8.44257,0.44566 -2.16629,2.16629 -2.69704,7.82904 -1.02638,10.95071 1.44861,2.70675 5.76748,3.44895 8.73917,1.50182 3.35453,-2.19797 5.40866,-0.35146 2.14897,1.93174 -3.24221,2.27093 -9.39303,2.08446 -11.83632,-0.35883 z"
     id="path3140"
     inkscape:connector-curvature="0" />
  <path
     style="fill:#000000"
     d="m 358.00007,332 c 0,-6 0.4,-10 1,-10 0.6,0 1,4 1,10 0,6 -0.4,10 -1,10 -0.6,0 -1,-4 -1,-10 z"
     id="path3138"
     inkscape:connector-curvature="0" />
  <path
     style="fill:#000000"
     d="m 374.49127,321.98533 c -0.978,0 -8.5,17.06416 -8.5,19.28125 0,1.7151 2.1409,0.51589 3.1875,-1.78125 0.9505,-2.08613 1.8253,-2.5 5.3125,-2.5 3.4871,0 4.362,0.41387 5.3125,2.5 1.0466,2.29714 3.1875,3.49635 3.1875,1.78125 0,-2.21709 -7.5221,-19.28125 -8.5,-19.28125 z m 0,5.8125 c 0.4298,-0.006 0.8596,0.74029 1.375,2.21875 0.6275,1.80015 1.125,3.43208 1.125,3.625 0,0.19293 -1.1505,0.34375 -2.5625,0.34375 -2.1998,0 -2.4648,-0.32218 -1.875,-2.25 0.8179,-2.67331 1.3848,-3.92999 1.9375,-3.9375 z"
     id="path3136"
     inkscape:connector-curvature="0" />
  <path
     style="fill:#000000"
     d="m 389.00007,332 c 0,-6 0.4,-10 1,-10 0.5925,0 1,3.66667 1,9 l 0,9 4.5,0 c 2.475,0 4.5,0.45 4.5,1 0,0.55 -2.475,1 -5.5,1 l -5.5,0 0,-10 z"
     id="path3132"
     inkscape:connector-curvature="0" />
  <path
     style="fill:#000000"
     d="m 418.26137,340.47052 c -2.5709,-1.80073 -4.4571,-7.77586 -3.6017,-11.40959 1.4644,-6.22097 7.8531,-9.39848 13.2674,-6.59867 1.6901,0.874 3.073,1.95254 3.073,2.39675 0,1.78345 -1.295,1.87924 -4.0647,0.30067 -2.6367,-1.50274 -3.172,-1.51491 -5.6605,-0.12875 -5.4145,3.01601 -5.5183,10.85254 -0.1833,13.84699 2.2654,1.27155 2.9548,1.24544 5.8992,-0.2234 3.975,-1.98301 5.0185,-1.42725 2.5148,1.33935 -2.207,2.43869 -8.0871,2.68795 -11.2442,0.47665 z"
     id="path3130"
     inkscape:connector-curvature="0" />
  <path
     style="fill:#000000"
     d="m 437.00007,332.08333 c 0,-8.29629 0.2658,-10.08333 1.5,-10.08333 1.1111,0 1.5,1.16667 1.5,4.5 l 0,4.5 4.5,0 4.5,0 0,-4.5 c 0,-3.33333 0.3888,-4.5 1.5,-4.5 1.2333,0 1.5,1.77778 1.5,10 0,8.22222 -0.2667,10 -1.5,10 -1.1112,0 -1.5,-1.16667 -1.5,-4.5 l 0,-4.5 -4.4425,0 -4.4425,0 -0.3075,4.17228 c -0.1692,2.29475 -0.87,4.35725 -1.5575,4.58333 -0.9446,0.31061 -1.25,-2.05305 -1.25,-9.67228 z"
     id="path3128"
     inkscape:connector-curvature="0" />
  <path
     style="fill:#000000"
     d="m 465.92877,322.48533 c -1.362,0 -9.1084,17.98537 -8.1562,18.9375 1.083,1.08309 1.8983,0.54896 3.0312,-1.9375 0.9418,-2.06708 1.842,-2.5 5.1875,-2.5 3.3958,0 4.2022,0.40185 5,2.5 0.9995,2.62897 3,3.45022 3,1.21875 0,-2.73256 -6.8482,-18.21875 -8.0625,-18.21875 z m 0,5.1875 c 0.5615,0.0718 1.158,1.166 1.9062,3.3125 1.0037,2.87909 0.9565,3 -1.7812,3 -2.7942,0 -2.8527,-0.0481 -1.8125,-3.4375 0.6056,-1.97326 1.126,-2.94684 1.6875,-2.875 z"
     id="path3126"
     inkscape:connector-curvature="0" />
  <path
     style="fill:#000000"
     d="m 479.00007,332 c 0,-7.34231 0.3322,-9.99553 1.25,-9.98317 0.6875,0.009 3.3835,3.27176 5.9912,7.25 l 4.7412,7.23317 0.01,-7.25 c 0.01,-5.77387 0.3142,-7.25 1.5088,-7.25 1.2333,0 1.5,1.77778 1.5,10 0,7.34231 -0.3322,9.99553 -1.25,9.98317 -0.6875,-0.009 -3.3836,-3.27176 -5.9912,-7.25 l -4.7413,-7.23317 -0.01,7.25 c -0.01,5.77387 -0.3142,7.25 -1.5087,7.25 -1.2334,0 -1.5,-1.77778 -1.5,-10 z"
     id="path3122"
     inkscape:connector-curvature="0" />
  <path
     style="fill:#000000"
     d="m 503.02547,340.02544 c -3.8868,-3.88676 -3.9145,-12.58087 -0.052,-16.44293 2.6548,-2.65482 9.0797,-2.74973 11.9235,-0.17614 2.8368,2.56726 1.6144,3.90923 -1.9036,2.08996 -3.8608,-1.99646 -5.6026,-1.8867 -7.993,0.50367 -2.1662,2.16629 -2.697,7.82904 -1.0263,10.95071 2.1114,3.94522 11.0264,3.19657 11.0264,-0.92596 0,-1.58306 -0.6545,-2.02475 -3,-2.02475 -1.65,0 -3,-0.45 -3,-1 0,-0.55 1.8,-1 4,-1 3.8922,0 4,0.0928 4,3.4433 0,2.42458 -0.6576,3.90385 -2.2226,5 -3.1684,2.21924 -9.3341,2.00001 -11.752,-0.41786 z"
     id="path3120"
     inkscape:connector-curvature="0" />
  <path
     style="fill:#000000"
     d="m 523.42547,340.66641 c -0.2814,-0.73347 -0.3798,-5.12097 -0.2186,-9.75 l 0.2932,-8.41641 5.75,-0.2999 c 3.5393,-0.1846 5.75,0.10375 5.75,0.75 0,0.57766 -2.0241,1.0499 -4.5,1.0499 -4.4762,0 -4.5,0.0185 -4.5,3.5 0,3.33333 0.1666,3.5 3.5,3.5 1.925,0 3.5,0.45 3.5,1 0,0.55 -1.575,1 -3.5,1 -3.3334,0 -3.5,0.16667 -3.5,3.5 l 0,3.5 5,0 c 2.75,0 5,0.45 5,1 0,1.57672 -11.9633,1.25935 -12.5746,-0.33359 z"
     id="path3118"
     inkscape:connector-curvature="0" />
  <path
     style="fill:#000000"
     d="m 329.36627,189.73533 -9.9375,2.125 c -5.46524,1.1633 -14.59349,2.79964 -20.28125,3.625 -12.08359,1.75347 -18.68595,4.84307 -23.5625,11 -4.5933,5.79932 -5.59375,8.72654 -5.59375,16.625 0,7.45438 0.62605,9.24987 5.15625,15.03125 1.57042,2.00415 2.84375,4.61994 2.84375,5.8125 0,1.19256 -3.0375,8.2672 -6.75,15.71875 -7.52173,15.09726 -8.14017,18.73311 -4.46875,25.90625 1.65164,3.22694 9.2138,11.40625 10.53125,11.40625 0.15703,0 2.74611,0.8886 5.75,1.96875 7.88564,2.83563 26.30165,2.86265 34.53125,0.0312 7.48482,-2.57515 12.66767,-6.18695 14.90625,-10.34375 2.65819,-4.93595 1.7806,-15.81251 -1.71875,-21.28125 -4.35969,-6.81325 -16.76849,-11.375 -30.9375,-11.375 -4.38075,0 -8.00272,-0.46014 -8.375,-1.0625 -1.02461,-1.65785 2.5995,-5.03771 4.6875,-4.375 2.35991,0.74901 13.0403,-2.00776 18.65625,-4.8125 5.2385,-2.61623 8.67397,-6.46263 11.84375,-13.25 3.08285,-6.60121 3.04792,-12.88797 -0.125,-20.0625 -2.59534,-5.86854 -2.20819,-9.4375 1.03125,-9.4375 1.49432,0 5.4305,-5.51935 5.4375,-7.625 0.002,-0.62656 -0.81524,-2.14344 -1.8125,-3.375 l -1.8125,-2.25 z m -29.84375,22.25 c 10.92224,0 15.70399,14.75338 6.34375,19.59375 -5.50316,2.84579 -14.43285,0.97356 -16.84375,-3.53125 -0.56383,-1.05352 -1.03125,-3.47784 -1.03125,-5.375 0,-4.77389 6.37482,-10.6875 11.53125,-10.6875 z m -0.0312,61 c 16.31405,0 21.77168,5.51763 9.875,9.96875 -2.99463,1.12043 -7.78938,2.04335 -10.65625,2.03125 -5.50651,-0.0232 -13.05237,-2.81166 -13.90625,-5.125 -1.62757,-4.40944 3.63129,-6.875 14.6875,-6.875 z"
     id="path3116"
     inkscape:connector-curvature="0" />
  <path
     style="fill:#000000"
     d="m 370.92877,194.48533 c -4.9639,-0.0414 -9.8578,0.67441 -13.0625,2.15625 -6.44302,2.97913 -12.29899,8.57769 -15.3125,14.625 -3.32936,6.68116 -3.62426,19.79277 -0.59375,26.46875 3.9673,8.73962 13.75965,16.99322 22.78125,19.21875 5.3679,1.32419 13.7528,0.23818 20.1563,-2.59375 5.6891,-2.51596 8.0937,-2.50456 8.0937,0.0312 0,2.06639 3.2334,2.85695 8.5313,2.0625 2.8305,-0.42446 4.902,-1.35128 5.5,-2.46875 0.5544,-1.03588 0.8855,-13.27692 0.8124,-28.96875 l -0.125,-27.15625 -2.3124,-1.53125 c -2.5684,-1.68288 -7.3325,-1.11923 -11.125,1.28125 -2.9561,1.87107 -4.1494,1.76889 -9.8438,-0.75 -3.4761,-1.53763 -8.5361,-2.33355 -13.5,-2.375 z m 2.9062,16.5 c 4.2707,0 5.6749,0.5035 8.625,3.09375 8.6874,7.62756 6.1408,22.98037 -4.2812,25.875 -3.7942,1.05381 -4.0975,1.08564 -7.9688,0.34375 -3.7892,-0.72617 -9.9318,-7.36779 -10.7187,-11.5625 -1.026,-5.46923 0.1192,-8.61924 4.9375,-13.4375 3.9406,-3.94058 4.7342,-4.3125 9.4062,-4.3125 z"
     id="path3110"
     inkscape:connector-curvature="0" />
  <path
     style="fill:#000000"
     d="m 64.091252,255.25 c -1.94203,-1.59531 -2.17901,-3.03168 -2.68099,-16.25 -0.61973,-16.31894 -1.98563,-21.62348 -6.55881,-25.47156 C 52.480182,211.53315 50.749932,211 46.645802,211 c -6.55946,0 -9.17362,1.78967 -12.24301,8.38165 -2.16535,4.65042 -2.38412,6.44853 -2.393,19.66835 -0.007,9.97158 -0.38737,14.9276 -1.20977,15.75 -1.62803,1.62803 -14.23668,1.58757 -15.58211,-0.05 -0.62801,-0.76438 -1.1612,-11.97045 -1.37244,-28.84479 -0.40316,-32.20497 -0.59192,-31.46848 7.84205,-30.59801 2.88641,0.2979 6.51481,1.28995 8.06311,2.20455 2.70304,1.59673 3.00874,1.55994 7.68117,-0.92442 6.22309,-3.30885 14.07931,-3.47168 21.96191,-0.45518 7.16358,2.74135 11.63558,7.1522 15.78165,15.56588 l 3.32466,6.74677 0.31553,17.9931 c 0.28456,16.2274 0.14314,18.11916 -1.44113,19.2776 -2.6104,1.90877 -10.73968,1.62389 -13.28317,-0.4655 z"
     id="path3106"
     inkscape:connector-curvature="0" />
  <path
     style="fill:#000000"
     d="m 121.08502,194.11033 c -3.65203,-0.009 -7.41114,0.77141 -11.78125,2.34375 -5.21847,1.87757 -7.81021,3.52758 -11.124998,7.15625 -6.69419,7.32807 -8.46898,11.58346 -8.96875,21.4375 -0.36858,7.2673 -0.0983,9.33944 1.8125,13.78125 2.53358,5.88946 10.098878,13.36624 16.468748,16.28125 5.10252,2.33503 19.16702,2.50046 25,0.28125 7.13666,-2.7152 7.52979,-2.74666 9.59375,-0.53125 2.68821,2.88545 10.08484,2.97766 12.90625,0.15625 1.89694,-1.89694 1.96833,-3.14724 1.625,-29.5 -0.26096,-20.03092 -0.7189,-27.93946 -1.625,-29.03125 -1.89458,-2.28283 -9.53551,-1.96449 -12,0.5 -2.55683,2.55683 -3.38313,2.51882 -10.8125,-0.5 -3.91857,-1.59225 -7.44172,-2.36623 -11.09375,-2.375 z m 1.90625,16.15625 c 4.42685,-0.0708 8.7421,2.16043 11.8125,6.71875 2.00053,2.96996 2.32831,4.45223 2,9.78125 -0.33232,5.39384 -0.82762,6.73387 -3.4375,9.34375 -6.41967,6.41967 -17.07262,5.34081 -22.5,-2.28125 -3.07476,-4.3181 -3.23333,-12.52161 -0.3125,-16.4375 3.47809,-4.66301 8.01065,-7.05423 12.4375,-7.125 z"
     id="path3104"
     inkscape:connector-curvature="0" />
  <path
     style="fill:#000000"
     d="m 432.11257,255.25 c -1.9957,-1.65603 -2.1225,-2.79508 -2.3607,-21.2126 l -0.2518,-19.46259 -2.5,-1.18883 c -1.375,-0.65385 -3.85,-1.57974 -5.5,-2.05752 -2.878,-0.83336 -3.0122,-1.12564 -3.3,-7.18589 -0.1654,-3.48262 0.1796,-6.89508 0.7689,-7.60509 0.5878,-0.70835 2.8019,-1.56503 4.9201,-1.90374 5.4515,-0.87174 6.3141,-2.42635 6.5067,-11.7273 0.2066,-9.9783 1.3567,-11.28057 9.405,-10.64927 7.6456,0.59972 8.5986,1.9489 9.1993,13.02402 l 0.5,9.21881 5.4696,0.30988 c 3.0084,0.17043 6.0459,0.78803 6.75,1.37244 0.7947,0.65948 1.2804,3.47318 1.2804,7.41707 0,5.59234 -0.286,6.54187 -2.3842,7.91668 -1.3113,0.8592 -4.0095,1.45272 -5.9959,1.31895 -1.9865,-0.13378 -4.1241,0.26915 -4.7504,0.8954 -0.7565,0.75649 -1.2228,7.7657 -1.3896,20.8838 -0.2879,22.65563 -0.1787,22.38578 -9.0603,22.38578 -3.4805,0 -5.895,-0.57826 -7.3071,-1.75 z"
     id="path3100"
     inkscape:connector-curvature="0" />
  <path
     style="fill:#000000"
     d="m 499.17877,193.54783 c -4.9953,0.11463 -7.0434,0.69617 -10.9688,2.75 -14.2772,7.47027 -20.3839,20.88473 -16.8124,36.9375 2.472,11.11183 8.9387,18.98742 18.3437,22.34375 5.1112,1.82401 16.9465,1.75252 22.3437,-0.125 5.4812,-1.90671 12.2896,-6.52712 12.6876,-8.59375 0.4638,-2.40835 -7.6057,-7.2905 -11.7813,-7.125 -1.925,0.0763 -5.9839,0.25604 -9.0313,0.40625 -5.8694,0.28932 -11.1154,-1.82177 -13.3437,-5.40625 -2.1344,-3.43355 0.8133,-3.90258 21.5313,-3.34375 16.5469,0.44632 19.8782,0.30121 20.9062,-0.9375 0.8204,-0.98869 1.0521,-3.74758 0.7188,-8.40625 -0.3952,-5.52142 -1.1384,-7.92757 -3.5938,-11.75 -7.5932,-11.82039 -16.0667,-16.757 -28.6875,-16.75 -0.849,4.6e-4 -1.5989,-0.0164 -2.3125,0 z m 3.75,16.4375 c 6.1855,0 14.4826,5.91244 12.5938,8.96875 -0.8028,1.299 -24.1713,1.4154 -24.9688,0.125 -1.7984,-2.90991 6.6132,-9.09375 12.375,-9.09375 z"
     id="path3098"
     inkscape:connector-curvature="0" />
  <path
     style="fill:#000000"
     d="m 194.77739,254.25 c -2.37925,-2.71674 -27.77737,-54.2625 -27.77737,-56.37448 0,-1.03154 0.3375,-1.91437 0.75,-1.96184 14.42057,-1.65978 14.958,-1.31406 23.04911,14.82732 3.7167,7.41465 7.15818,13.46604 7.64772,13.44752 0.48954,-0.0185 3.52654,-5.80601 6.74889,-12.86109 3.22235,-7.05509 6.81973,-13.63382 7.99418,-14.61941 1.67617,-1.40664 3.55191,-1.7292 8.72273,-1.5 5.78858,0.25657 6.62329,0.54321 6.88357,2.3638 0.31587,2.2094 -24.35889,53.18249 -27.33755,56.47387 -2.19203,2.42217 -4.6725,2.49802 -6.68128,0.20431 z"
     id="path3094"
     inkscape:connector-curvature="0" />
  <path
     style="fill:#000000"
     d="m 240.26846,254.75 c -0.59222,-0.75813 -0.91025,-12.39617 -0.80821,-29.57618 0.18358,-30.9067 0.15381,-30.75723 5.91477,-29.70095 1.58125,0.28992 4.36161,0.52713 6.17857,0.52713 6.41405,0 6.44389,0.14355 6.30147,30.31312 -0.0762,16.14423 -0.52875,27.6946 -1.11414,28.43688 -0.62661,0.79455 -3.62923,1.25 -8.2409,1.25 -4.61665,0 -7.61022,-0.45459 -8.23156,-1.25 z"
     id="path3092"
     inkscape:connector-curvature="0" />
  <path
     style="fill:#000000"
     d="m 239.09497,172.25 c -3.88781,-2.0625 -7.09408,-4.2 -7.12504,-4.75 -0.0309,-0.55 2.70158,-1.45 6.07231,-2 4.94569,-0.80699 6.39479,-1.48253 7.50775,-3.5 1.93413,-3.506 1.79389,-4.86997 -1.04997,-10.21215 -1.375,-2.58293 -2.5,-6.05481 -2.5,-7.71529 0,-4.20925 3.98375,-12.07256 6.11626,-12.07256 1.8959,0 14.25035,15.20385 15.91741,19.58856 0.57212,1.50478 0.74281,4.71919 0.37931,7.14314 l -0.66089,4.40717 9.87395,-0.64707 c 5.43068,-0.35589 10.46161,-0.83266 11.17986,-1.0595 1.40025,-0.44223 8.78307,2.31206 8.08055,3.01459 -0.23135,0.23134 -5.81294,1.33254 -12.40354,2.4471 -7.48102,1.26515 -15.26479,3.35634 -20.71844,5.56624 -4.80454,1.94688 -9.83021,3.53977 -11.16815,3.53977 -1.33795,0 -5.61357,-1.6875 -9.50137,-3.75 z"
     id="path3090"
     inkscape:connector-curvature="0" />
  <path
     style="fill:#000000"
     d="m 312.14385,154.6733 c -2.098,-2.52793 -4.12094,-8.56987 -3.47117,-10.3674 0.35903,-0.99325 1.47954,-3.00033 2.49001,-4.46019 l 1.83721,-2.65429 -7.24994,-3.71067 c -8.93863,-4.57498 -9.67035,-5.22637 -6.64458,-5.91514 10.62355,-2.41829 57.70759,-5.04356 59.46509,-3.31561 1.3778,1.35457 -0.3897,1.99855 -9.28691,3.38367 -4.83095,0.75209 -10.92104,1.86206 -13.53354,2.46662 l -4.75,1.09919 0,4.36546 c 0,4.59876 -1.1959,6.46066 -10.39569,16.18506 -4.15173,4.38848 -6.55526,5.21895 -8.46048,2.9233 z"
     id="path3088"
     inkscape:connector-curvature="0" />
  <path
     style="fill:#000000"
     d="m 368.25007,112.22207 c -3.9875,-2.01247 -7.25,-3.97835 -7.25,-4.3686 0,-0.39026 2.5875,-0.99316 5.75,-1.33978 7.9379,-0.87002 10.25,-1.96849 10.25,-4.86981 0,-1.31944 -0.6996,-2.979585 -1.5546,-3.689195 -3.2926,-2.73256 -3.6679,-4.858746 -1.4819,-8.395676 2.2159,-3.585479 4.4919,-4.97894 6.3767,-3.904187 0.6379,0.36372 4.1973,3.116237 7.9098,6.116703 5.7524,4.64913 6.75,5.92134 6.75,8.608095 l 0,3.15271 11.51,-0.7376 c 10.9097,-0.69914 16.49,-0.0245 16.49,1.99363 0,0.46083 -4.9124,1.57587 -10.9163,2.47787 -6.7761,1.01799 -14.3996,2.98524 -20.1004,5.18688 -5.0512,1.95079 -10.8264,3.52014 -12.8337,3.48745 -2.114,-0.0344 -6.7002,-1.59903 -10.8996,-3.71849 z"
     id="path3086"
     inkscape:connector-curvature="0" />
  <path
     style="fill:#000000"
     d="m 428.90517,84.34056 c -3.3856,-0.907417 -16.0899,-8.108327 -15.2361,-8.636002 0.4953,-0.306098 3.6495,-0.867559 7.0094,-1.247691 6.1968,-0.70109 6.9913,-1.305466 8.6514,-6.581635 0.2812,-0.893623 -0.578,-3.975806 -1.9093,-6.849297 -2.8384,-6.126329 -3.0176,-9.493323 -0.8003,-15.034872 2.5564,-6.389021 4.597,-6.79926 8.6583,-1.740614 11.3525,14.140686 12.153,15.601921 11.9793,21.869091 -0.1871,6.748049 -1.3932,6.274694 12.5506,4.925761 9.1293,-0.883176 15.1916,-0.06411 15.1916,2.052524 0,0.496196 -0.2838,0.902175 -0.6307,0.902175 -5.3541,0 -23.0654,4.041952 -31.1288,7.10401 -10.1153,3.841269 -11.1812,4.081921 -14.3354,3.23655 z"
     id="path3084"
     inkscape:connector-curvature="0" />
  <path
     style="fill:#000000"
     d="m 349.38955,72.234687 c -1.82474,-1.207253 -4.38953,-6.943289 -4.38953,-9.816993 0,-1.474894 0.88541,-4.114253 1.96758,-5.865242 l 1.96759,-3.183617 -7.96744,-3.884567 c -4.38209,-2.136512 -7.60792,-4.244082 -7.16851,-4.683489 2.05898,-2.058982 54.67993,-6.329496 58.78063,-4.77041 4.0268,1.53099 2.0767,2.646858 -6.8166,3.900484 -4.5448,0.64065 -10.6257,1.830863 -13.5132,2.644918 l -5.25,1.480099 0,4.45332 c 0,4.11336 -0.5153,5.008208 -6.75,11.722065 -6.7391,7.256916 -8.307,8.738119 -9.25005,8.738119 -0.275,0 -0.99971,-0.330609 -1.61047,-0.734687 z"
     id="path3082"
     inkscape:connector-curvature="0" />
  <path
     style="fill:#000000"
     d="m 271.40072,33.381724 c -9.22637,-4.837706 -9.41325,-5.126662 -3.77134,-5.831355 6.78826,-0.847877 9.49657,-1.784389 10.69824,-3.699378 1.00817,-1.606633 0.66975,-2.358931 -3.81305,-8.476309 -0.68322,-0.932331 -0.40836,-2.416393 0.89616,-4.838735 3.03222,-5.6305011 4.80142,-5.4693531 12.90642,1.175588 5.88042,4.821102 7.24056,6.480824 7.50104,9.153184 l 0.31817,3.26426 13.33972,-0.31449 c 12.12496,-0.285851 15.87013,0.172658 14.29294,1.749842 -0.31038,0.310383 -5.22288,1.255369 -10.91666,2.099969 -6.50133,0.964389 -14.16879,2.986428 -20.61176,5.435669 C 286.59792,35.244986 281.15323,37 280.1413,37 c -1.01193,0 -4.94519,-1.628224 -8.74058,-3.618276 z"
     id="path3067"
     inkscape:connector-curvature="0" />
</svg>
