<?xml version="1.0" encoding="UTF-8" standalone="no"?>
<!-- Created with Inkscape (http://www.inkscape.org/) -->

<svg
   xmlns:dc="http://purl.org/dc/elements/1.1/"
   xmlns:cc="http://creativecommons.org/ns#"
   xmlns:rdf="http://www.w3.org/1999/02/22-rdf-syntax-ns#"
   xmlns:svg="http://www.w3.org/2000/svg"
   xmlns="http://www.w3.org/2000/svg"
   xmlns:sodipodi="http://sodipodi.sourceforge.net/DTD/sodipodi-0.dtd"
   xmlns:inkscape="http://www.inkscape.org/namespaces/inkscape"
   id="svg3039"
   version="1.1"
   inkscape:version="0.48.5 r10040"
   width="263.0304"
   height="189.49321"
   sodipodi:docname="navigate_logo_birds_color.svg">
  <metadata
     id="metadata3045">
    <rdf:RDF>
      <cc:Work
         rdf:about="">
        <dc:format>image/svg+xml</dc:format>
        <dc:type
           rdf:resource="http://purl.org/dc/dcmitype/StillImage" />
        <dc:title></dc:title>
      </cc:Work>
    </rdf:RDF>
  </metadata>
  <defs
     id="defs3043" />
  <sodipodi:namedview
     pagecolor="#ffffff"
     bordercolor="#666666"
     borderopacity="1"
     objecttolerance="10"
     gridtolerance="10"
     guidetolerance="10"
     inkscape:pageopacity="0"
     inkscape:pageshadow="2"
     inkscape:window-width="1920"
     inkscape:window-height="1036"
     id="namedview3041"
     showgrid="false"
     inkscape:zoom="0.81068299"
     inkscape:cx="428.23152"
     inkscape:cy="-146.36709"
     inkscape:window-x="0"
     inkscape:window-y="44"
     inkscape:window-maximized="0"
     inkscape:current-layer="svg3039"
     fit-margin-top="10"
     fit-margin-left="10"
     fit-margin-right="10"
     fit-margin-bottom="10"
     inkscape:snap-page="true" />
  <path
     style="fill:#036667;fill-opacity:1"
     d="m 17.1253,175.74321 c -3.88781,-2.0625 -7.09408,-4.2 -7.12504,-4.75 -0.030901,-0.55 2.70158,-1.45 6.07231,-2 4.94569,-0.80699 6.39479,-1.48253 7.50775,-3.5 1.93413,-3.506 1.79389,-4.86997 -1.04997,-10.21215 -1.375,-2.58293 -2.5,-6.05481 -2.5,-7.71529 0,-4.20925 3.98375,-12.07256 6.11626,-12.07256 1.8959,0 14.25035,15.20385 15.91741,19.58856 0.57212,1.50478 0.74281,4.71919 0.37931,7.14314 l -0.66089,4.40717 9.87395,-0.64707 c 5.43068,-0.35589 10.46161,-0.83266 11.17986,-1.0595 1.40025,-0.44223 8.78307,2.31206 8.08055,3.01459 -0.23135,0.23134 -5.81294,1.33254 -12.40354,2.4471 -7.48102,1.26515 -15.26479,3.35634 -20.71844,5.56624 -4.80454,1.94688 -9.83021,3.53977 -11.16815,3.53977 -1.33795,0 -5.61357,-1.6875 -9.50137,-3.75 z"
     id="path3090"
     inkscape:connector-curvature="0" />
  <path
     style="fill:#047e67;fill-opacity:1"
     d="m 90.17418,158.16651 c -2.098,-2.52793 -4.12094,-8.56987 -3.47117,-10.3674 0.35903,-0.99325 1.47954,-3.00033 2.49001,-4.46019 l 1.83721,-2.65429 -7.24994,-3.71067 c -8.93863,-4.57498 -9.67035,-5.22637 -6.64458,-5.91514 10.62355,-2.41829 57.70759,-5.04356 59.46509,-3.31561 1.3778,1.35457 -0.3897,1.99855 -9.28691,3.38367 -4.83095,0.75209 -10.92104,1.86206 -13.53354,2.46662 l -4.75,1.09919 0,4.36546 c 0,4.59876 -1.1959,6.46066 -10.39569,16.18506 -4.15173,4.38848 -6.55526,5.21895 -8.46048,2.9233 z"
     id="path3088"
     inkscape:connector-curvature="0" />
  <path
     style="fill:#0c9148;fill-opacity:1"
     d="m 146.2804,115.71528 c -3.9875,-2.01247 -7.25,-3.97835 -7.25,-4.3686 0,-0.39026 2.5875,-0.99316 5.75,-1.33978 7.9379,-0.87002 10.25,-1.96849 10.25,-4.86981 0,-1.31944 -0.6996,-2.97958 -1.5546,-3.68919 -3.2926,-2.732565 -3.6679,-4.858751 -1.4819,-8.395681 2.2159,-3.585479 4.4919,-4.97894 6.3767,-3.904187 0.6379,0.36372 4.1973,3.116237 7.9098,6.116703 5.7524,4.64913 6.75,5.921345 6.75,8.608095 l 0,3.15271 11.51,-0.7376 c 10.9097,-0.69914 16.49,-0.0245 16.49,1.99363 0,0.46083 -4.9124,1.57587 -10.9163,2.47787 -6.7761,1.01799 -14.3996,2.98524 -20.1004,5.18688 -5.0512,1.95079 -10.8264,3.52014 -12.8337,3.48745 -2.114,-0.0344 -6.7002,-1.59903 -10.8996,-3.71849 z"
     id="path3086"
     inkscape:connector-curvature="0" />
  <path
     style="fill:#1daf3d;fill-opacity:1"
     d="m 206.9355,87.83377 c -3.3856,-0.907417 -16.0899,-8.108327 -15.2361,-8.636002 0.4953,-0.306098 3.6495,-0.867559 7.0094,-1.247691 6.1968,-0.70109 6.9913,-1.305466 8.6514,-6.581635 0.2812,-0.893623 -0.578,-3.975806 -1.9093,-6.849297 -2.8384,-6.126329 -3.0176,-9.493323 -0.8003,-15.034872 2.5564,-6.389021 4.597,-6.79926 8.6583,-1.740614 11.3525,14.140686 12.153,15.601921 11.9793,21.869091 -0.1871,6.748049 -1.3932,6.274694 12.5506,4.925761 9.1293,-0.883176 15.1916,-0.06411 15.1916,2.052524 0,0.496196 -0.2838,0.902175 -0.6307,0.902175 -5.3541,0 -23.0654,4.041952 -31.1288,7.10401 -10.1153,3.841269 -11.1812,4.081921 -14.3354,3.23655 z"
     id="path3084"
     inkscape:connector-curvature="0" />
  <path
     style="fill:#36ad1f;fill-opacity:1"
     d="m 127.41988,75.727897 c -1.82474,-1.207253 -4.38953,-6.943289 -4.38953,-9.816993 0,-1.474894 0.88541,-4.114253 1.96758,-5.865242 l 1.96759,-3.183617 -7.96744,-3.884567 c -4.38209,-2.136512 -7.60792,-4.244082 -7.16851,-4.683489 2.05898,-2.058982 54.67993,-6.329496 58.78063,-4.77041 4.0268,1.53099 2.0767,2.646858 -6.8166,3.900484 -4.5448,0.64065 -10.6257,1.830863 -13.5132,2.644918 l -5.25,1.480099 0,4.45332 c 0,4.11336 -0.5153,5.008208 -6.75,11.722065 -6.7391,7.256916 -8.307,8.738119 -9.25005,8.738119 -0.275,0 -0.99971,-0.330609 -1.61047,-0.734687 z"
     id="path3082"
     inkscape:connector-curvature="0" />
  <path
     style="fill:#afd439;fill-opacity:1"
     d="m 49.43105,36.874934 c -9.22637,-4.837706 -9.41325,-5.126662 -3.77134,-5.831355 6.78826,-0.847877 9.49657,-1.784389 10.69824,-3.699378 1.00817,-1.606633 0.66975,-2.358931 -3.81305,-8.476309 -0.68322,-0.932331 -0.40836,-2.416393 0.89616,-4.838735 3.03222,-5.6305005 4.80142,-5.4693525 12.90642,1.175588 5.88042,4.821102 7.24056,6.480824 7.50104,9.153184 l 0.31817,3.26426 13.33972,-0.31449 c 12.12496,-0.285851 15.87013,0.172658 14.29294,1.749842 -0.31038,0.310383 -5.22288,1.255369 -10.91666,2.099969 -6.50133,0.964389 -14.16879,2.986428 -20.61176,5.435669 -5.64268,2.145017 -11.08737,3.900031 -12.0993,3.900031 -1.01193,0 -4.94519,-1.628224 -8.74058,-3.618276 z"
     id="path3067"
     inkscape:connector-curvature="0" />
</svg>
